<svg id="svg" version="1.1" xmlns="http://www.w3.org/2000/svg" xmlns:xlink="http://www.w3.org/1999/xlink" width="400" height="400" viewBox="0, 0, 400,400"><g id="svgg"><path id="path0" d="M213.946 49.391 C 213.147 49.685,209.817 50.610,206.546 51.447 C 198.423 53.524,197.892 54.130,199.638 59.313 C 200.099 60.681,201.980 67.380,203.817 74.200 C 205.654 81.020,207.467 87.416,207.844 88.412 C 208.651 90.543,208.390 92.127,207.094 92.972 C 206.335 93.467,194.036 96.976,187.361 98.603 C 184.525 99.294,183.002 98.650,182.457 96.530 C 181.068 91.130,177.658 78.124,176.392 73.400 C 175.567 70.320,174.681 66.776,174.423 65.524 C 173.526 61.176,172.064 60.446,167.294 61.970 C 165.969 62.393,163.201 63.130,161.142 63.607 C 152.866 65.524,151.626 66.920,153.604 72.096 C 154.046 73.253,155.859 79.690,157.632 86.400 C 159.404 93.110,161.207 99.453,161.636 100.495 C 163.364 104.683,162.502 105.298,150.325 108.557 C 137.238 112.060,136.018 111.900,136.002 106.676 C 136.001 106.278,134.482 100.248,132.626 93.276 C 130.770 86.304,129.056 79.605,128.816 78.390 C 127.897 73.727,126.173 72.625,122.000 74.033 C 120.790 74.442,117.419 75.388,114.510 76.135 C 106.532 78.186,106.253 78.550,108.142 84.454 C 108.661 86.075,109.491 88.930,109.988 90.800 C 110.485 92.670,111.209 95.370,111.597 96.800 C 111.985 98.230,112.708 100.930,113.203 102.800 C 113.698 104.670,114.557 107.730,115.111 109.600 C 117.446 117.473,117.441 117.479,107.644 119.968 C 97.253 122.608,98.235 121.749,90.905 134.600 C 88.145 139.440,85.275 144.340,84.529 145.488 C 82.101 149.227,81.554 151.577,82.630 153.657 C 82.976 154.327,83.885 157.063,84.651 159.737 C 85.416 162.412,86.250 165.273,86.503 166.096 C 86.907 167.408,86.863 167.726,86.146 168.696 C 85.254 169.901,84.845 170.052,76.600 172.225 C 73.520 173.037,68.480 174.387,65.400 175.225 C 62.320 176.064,57.664 177.292,55.053 177.955 C 47.893 179.773,47.948 179.647,50.412 188.687 C 53.866 201.354,53.252 200.668,59.506 198.857 C 63.581 197.678,65.693 197.107,80.400 193.212 C 83.810 192.309,87.300 191.298,88.157 190.965 C 91.357 189.723,93.333 191.185,94.224 195.453 C 95.052 199.421,97.141 207.071,98.033 209.408 C 99.548 213.375,98.457 215.941,94.993 216.561 C 94.117 216.718,87.100 218.526,79.400 220.579 C 71.700 222.633,64.770 224.442,64.000 224.601 C 61.406 225.135,60.212 228.206,61.593 230.788 C 61.810 231.192,62.598 233.925,63.345 236.861 C 65.587 245.678,66.107 246.383,69.578 245.314 C 70.580 245.005,77.723 243.057,85.451 240.985 C 93.179 238.913,99.986 237.033,100.577 236.809 C 103.546 235.680,105.661 236.810,106.177 239.800 C 106.539 241.897,109.449 252.747,110.455 255.749 C 111.646 259.306,110.725 261.528,107.800 262.150 C 104.394 262.874,75.658 270.534,74.805 270.945 C 73.387 271.629,72.924 273.233,73.547 275.309 C 73.826 276.239,74.828 279.923,75.774 283.495 C 77.739 290.913,77.973 291.338,79.978 291.102 C 81.530 290.920,110.433 283.176,113.187 282.205 C 116.017 281.206,118.780 283.470,118.795 286.800 C 118.796 287.130,119.330 289.560,119.981 292.200 C 120.633 294.840,121.271 297.512,121.400 298.138 C 121.678 299.487,123.504 301.278,126.000 302.649 C 129.305 304.464,130.189 304.971,131.800 305.971 C 133.898 307.273,136.263 308.587,138.000 309.413 C 138.770 309.780,139.670 310.314,140.000 310.600 C 140.778 311.274,144.325 313.279,147.543 314.863 C 150.461 316.300,149.323 316.428,160.126 313.452 C 168.865 311.046,169.452 311.141,170.190 315.097 C 170.344 315.923,171.366 319.930,172.461 324.000 C 175.781 336.339,177.179 341.670,177.832 344.481 C 179.072 349.814,179.098 349.822,188.400 347.381 C 199.376 344.501,200.314 343.769,198.755 339.301 C 198.313 338.035,196.425 331.340,194.560 324.422 C 192.695 317.504,190.829 311.077,190.414 310.139 C 188.705 306.274,189.836 305.432,200.600 302.551 C 214.455 298.843,214.607 298.835,215.454 301.807 C 216.068 303.959,220.087 319.290,222.418 328.373 C 225.026 338.534,223.636 338.156,240.570 333.309 C 244.885 332.074,245.822 330.632,244.571 327.150 C 244.032 325.649,241.558 316.709,237.749 302.497 C 237.203 300.460,236.496 298.171,236.178 297.410 C 234.643 293.734,235.395 293.244,247.626 289.957 C 260.956 286.375,261.163 286.386,261.990 290.747 C 262.208 291.897,263.019 295.215,263.792 298.119 C 264.565 301.024,265.580 304.840,266.047 306.600 C 266.515 308.360,267.225 310.970,267.626 312.400 C 268.027 313.830,268.747 316.620,269.226 318.600 C 270.666 324.551,271.690 325.542,275.043 324.229 C 275.900 323.894,279.319 322.916,282.641 322.055 C 291.263 319.823,291.642 319.454,290.048 314.849 C 289.600 313.554,287.692 306.725,285.807 299.672 C 283.922 292.620,282.115 286.214,281.790 285.438 C 280.188 281.603,280.914 281.005,290.019 278.662 C 300.705 275.913,300.073 276.318,303.830 269.800 C 305.098 267.600,307.066 264.180,308.204 262.200 C 309.341 260.220,311.469 256.530,312.932 254.000 C 315.937 248.802,316.203 247.365,314.819 243.808 C 313.989 241.677,311.664 233.765,311.311 231.873 C 311.034 230.385,312.782 228.508,314.770 228.159 C 316.655 227.828,345.891 220.078,347.266 219.545 C 349.218 218.787,349.487 217.179,348.284 213.454 C 346.968 209.380,345.200 202.559,345.200 201.556 C 345.200 200.262,343.686 199.099,342.261 199.298 C 341.020 199.472,312.873 207.008,309.032 208.195 C 305.465 209.297,305.048 208.698,302.555 198.884 C 301.565 194.988,300.320 190.545,299.787 189.012 C 298.847 186.305,298.839 186.182,299.509 184.812 L 300.200 183.401 312.400 180.126 C 319.110 178.325,326.921 176.260,329.758 175.538 C 337.306 173.614,338.006 172.542,335.650 166.508 C 335.240 165.459,334.415 162.530,333.817 160.000 C 332.673 155.160,331.786 153.600,330.178 153.600 C 329.304 153.600,299.013 161.635,296.996 162.401 C 294.605 163.311,292.223 161.885,291.772 159.276 C 291.307 156.579,288.320 145.431,287.519 143.400 C 286.214 140.092,287.104 137.525,289.741 136.990 C 296.377 135.642,323.108 128.176,323.700 127.505 C 324.630 126.451,324.588 124.306,323.582 121.444 C 323.132 120.163,322.324 117.255,321.786 114.981 C 320.081 107.765,319.295 106.920,315.420 108.141 C 312.634 109.019,285.414 116.380,283.429 116.793 C 281.652 117.161,279.600 115.683,279.600 114.033 C 279.600 113.577,278.983 110.818,278.229 107.902 C 277.475 104.986,276.742 101.852,276.600 100.938 C 276.303 99.020,273.908 96.703,270.800 95.327 C 269.810 94.889,268.753 94.231,268.451 93.865 C 268.149 93.499,267.589 93.200,267.206 93.200 C 266.823 93.200,265.831 92.660,265.000 92.000 C 264.169 91.340,263.259 90.800,262.976 90.800 C 262.693 90.800,261.953 90.375,261.331 89.855 C 260.709 89.335,259.750 88.772,259.200 88.604 C 258.650 88.436,257.490 87.782,256.621 87.150 C 255.753 86.517,254.833 86.000,254.576 86.000 C 254.320 86.000,253.472 85.493,252.691 84.873 C 251.911 84.253,250.263 83.503,249.029 83.207 C 246.510 82.603,247.006 82.516,237.000 85.298 C 229.616 87.351,228.747 87.273,228.057 84.497 C 227.852 83.674,226.304 77.809,224.618 71.464 C 222.931 65.119,221.020 57.839,220.371 55.287 C 218.658 48.548,217.965 47.913,213.946 49.391 M232.890 121.599 C 233.611 122.038,234.840 122.398,235.622 122.399 C 236.509 122.399,237.555 122.776,238.400 123.400 C 239.145 123.950,240.143 124.400,240.616 124.400 C 241.089 124.400,241.818 124.778,242.237 125.241 C 242.656 125.703,243.539 126.353,244.199 126.684 C 245.391 127.282,246.728 128.426,249.800 131.479 C 252.602 134.264,256.543 141.056,257.529 144.800 C 257.790 145.790,260.991 157.760,264.644 171.400 C 268.296 185.040,271.712 197.820,272.235 199.800 C 275.040 210.415,275.610 212.517,276.628 216.000 C 281.272 231.892,272.656 249.651,256.903 256.655 C 253.386 258.218,178.806 277.984,176.129 278.062 C 171.490 278.197,165.064 277.506,163.801 276.736 C 163.141 276.333,162.060 275.999,161.400 275.994 C 160.740 275.989,159.408 275.449,158.440 274.793 C 157.472 274.137,156.468 273.600,156.210 273.600 C 155.951 273.600,155.317 273.150,154.800 272.600 C 154.283 272.050,153.604 271.600,153.290 271.600 C 152.977 271.600,152.071 270.951,151.277 270.157 C 150.484 269.364,149.244 268.264,148.523 267.714 C 147.802 267.164,146.822 266.059,146.345 265.257 C 145.867 264.456,144.894 262.899,144.182 261.798 C 141.606 257.815,140.705 255.041,134.767 232.800 C 131.447 220.370,128.491 209.300,128.196 208.200 C 125.556 198.351,124.622 194.844,123.398 190.200 C 122.818 188.000,121.906 184.678,121.372 182.817 C 120.044 178.195,119.952 168.854,121.200 165.304 C 121.640 164.052,122.000 162.763,122.000 162.440 C 122.000 159.596,129.657 149.064,133.751 146.277 C 140.190 141.893,138.950 142.263,215.200 121.952 C 220.797 120.461,230.700 120.263,232.890 121.599 M206.800 137.228 C 196.480 140.094,195.001 140.494,170.941 146.941 C 150.543 152.407,148.884 153.031,144.173 157.021 C 138.397 161.912,134.963 168.935,134.577 176.646 L 134.320 181.800 138.794 198.400 C 141.255 207.530,143.509 215.900,143.804 217.000 C 145.011 221.504,146.044 225.365,146.800 228.200 C 147.240 229.850,147.960 232.550,148.400 234.200 C 148.840 235.850,149.570 238.595,150.022 240.300 C 151.902 247.395,152.683 249.289,154.716 251.689 C 155.327 252.410,156.318 253.765,156.919 254.700 C 157.520 255.635,158.165 256.400,158.352 256.400 C 158.540 256.400,159.929 257.385,161.440 258.589 C 162.950 259.792,164.729 260.897,165.393 261.042 C 166.057 261.188,167.227 261.733,167.993 262.254 C 169.027 262.956,169.935 263.200,171.519 263.200 C 172.693 263.200,174.020 263.397,174.469 263.637 C 175.708 264.300,181.029 264.091,184.400 263.247 C 202.346 258.755,245.070 246.946,247.400 245.834 C 260.457 239.602,266.380 225.939,262.239 211.600 C 261.699 209.730,257.895 195.600,253.785 180.200 C 249.675 164.800,245.946 151.480,245.500 150.600 C 244.504 148.637,239.679 142.116,239.042 141.872 C 238.788 141.774,237.170 140.683,235.448 139.447 C 233.725 138.211,232.002 137.200,231.618 137.200 C 231.233 137.200,230.080 136.754,229.055 136.209 C 227.380 135.318,226.597 135.199,221.296 135.029 L 215.400 134.839 206.800 137.228 " stroke="none" fill="#f9fbfc" fill-rule="evenodd"></path><path id="path1" d="M0.000 200.000 L 0.000 400.000 200.000 400.000 L 400.000 400.000 400.000 200.000 L 400.000 0.000 200.000 0.000 L 0.000 0.000 0.000 200.000 M218.586 49.723 C 218.919 50.231,219.722 52.734,220.371 55.287 C 221.020 57.839,222.931 65.119,224.618 71.464 C 226.304 77.809,227.852 83.674,228.057 84.497 C 228.747 87.273,229.616 87.351,237.000 85.298 C 247.006 82.516,246.510 82.603,249.029 83.207 C 250.263 83.503,251.911 84.253,252.691 84.873 C 253.472 85.493,254.320 86.000,254.576 86.000 C 254.833 86.000,255.753 86.517,256.621 87.150 C 257.490 87.782,258.650 88.436,259.200 88.604 C 259.750 88.772,260.709 89.335,261.331 89.855 C 261.953 90.375,262.693 90.800,262.976 90.800 C 263.259 90.800,264.169 91.340,265.000 92.000 C 265.831 92.660,266.823 93.200,267.206 93.200 C 267.589 93.200,268.149 93.499,268.451 93.865 C 268.753 94.231,269.810 94.889,270.800 95.327 C 273.908 96.703,276.303 99.020,276.600 100.938 C 276.742 101.852,277.475 104.986,278.229 107.902 C 278.983 110.818,279.600 113.577,279.600 114.033 C 279.600 115.683,281.652 117.161,283.429 116.793 C 285.414 116.380,312.634 109.019,315.420 108.141 C 319.295 106.920,320.081 107.765,321.786 114.981 C 322.324 117.255,323.132 120.163,323.582 121.444 C 324.588 124.306,324.630 126.451,323.700 127.505 C 323.108 128.176,296.377 135.642,289.741 136.990 C 287.104 137.525,286.214 140.092,287.519 143.400 C 288.320 145.431,291.307 156.579,291.772 159.276 C 292.223 161.885,294.605 163.311,296.996 162.401 C 299.013 161.635,329.304 153.600,330.178 153.600 C 331.786 153.600,332.673 155.160,333.817 160.000 C 334.415 162.530,335.240 165.459,335.650 166.508 C 338.006 172.542,337.306 173.614,329.758 175.538 C 326.921 176.260,319.110 178.325,312.400 180.126 L 300.200 183.401 299.509 184.812 C 298.839 186.182,298.847 186.305,299.787 189.012 C 300.320 190.545,301.565 194.988,302.555 198.884 C 305.048 208.698,305.465 209.297,309.032 208.195 C 312.873 207.008,341.020 199.472,342.261 199.298 C 343.686 199.099,345.200 200.262,345.200 201.556 C 345.200 202.559,346.968 209.380,348.284 213.454 C 349.487 217.179,349.218 218.787,347.266 219.545 C 345.891 220.078,316.655 227.828,314.770 228.159 C 312.782 228.508,311.034 230.385,311.311 231.873 C 311.664 233.765,313.989 241.677,314.819 243.808 C 316.203 247.365,315.937 248.802,312.932 254.000 C 311.469 256.530,309.341 260.220,308.204 262.200 C 299.341 277.627,301.444 275.723,290.019 278.662 C 280.914 281.005,280.188 281.603,281.790 285.438 C 282.115 286.214,283.922 292.620,285.807 299.672 C 287.692 306.725,289.600 313.554,290.048 314.849 C 291.642 319.454,291.263 319.823,282.641 322.055 C 279.319 322.916,275.900 323.894,275.043 324.229 C 271.690 325.542,270.666 324.551,269.226 318.600 C 268.747 316.620,268.027 313.830,267.626 312.400 C 267.225 310.970,266.515 308.360,266.047 306.600 C 265.580 304.840,264.565 301.024,263.792 298.119 C 263.019 295.215,262.208 291.897,261.990 290.747 C 261.163 286.386,260.956 286.375,247.626 289.957 C 235.395 293.244,234.643 293.734,236.178 297.410 C 236.496 298.171,237.203 300.460,237.749 302.497 C 241.558 316.709,244.032 325.649,244.571 327.150 C 245.822 330.632,244.885 332.074,240.570 333.309 C 223.636 338.156,225.026 338.534,222.418 328.373 C 220.087 319.290,216.068 303.959,215.454 301.807 C 214.607 298.835,214.455 298.843,200.600 302.551 C 189.836 305.432,188.705 306.274,190.414 310.139 C 190.829 311.077,192.695 317.504,194.560 324.422 C 196.425 331.340,198.313 338.035,198.755 339.301 C 200.314 343.769,199.376 344.501,188.400 347.381 C 179.098 349.822,179.072 349.814,177.832 344.481 C 177.179 341.670,175.781 336.339,172.461 324.000 C 171.366 319.930,170.344 315.923,170.190 315.097 C 169.452 311.141,168.865 311.046,160.126 313.452 C 149.323 316.428,150.461 316.300,147.543 314.863 C 144.325 313.279,140.778 311.274,140.000 310.600 C 139.670 310.314,138.770 309.780,138.000 309.413 C 136.263 308.587,133.898 307.273,131.800 305.971 C 130.189 304.971,129.305 304.464,126.000 302.649 C 123.504 301.278,121.678 299.487,121.400 298.138 C 121.271 297.512,120.633 294.840,119.981 292.200 C 119.330 289.560,118.796 287.130,118.795 286.800 C 118.780 283.470,116.017 281.206,113.187 282.205 C 110.433 283.176,81.530 290.920,79.978 291.102 C 77.973 291.338,77.739 290.913,75.774 283.495 C 74.828 279.923,73.826 276.239,73.547 275.309 C 72.924 273.233,73.387 271.629,74.805 270.945 C 75.658 270.534,104.394 262.874,107.800 262.150 C 110.725 261.528,111.646 259.306,110.455 255.749 C 109.449 252.747,106.539 241.897,106.177 239.800 C 105.661 236.810,103.546 235.680,100.577 236.809 C 99.986 237.033,93.179 238.913,85.451 240.985 C 77.723 243.057,70.580 245.005,69.578 245.314 C 66.107 246.383,65.587 245.678,63.345 236.861 C 62.598 233.925,61.810 231.192,61.593 230.788 C 60.212 228.206,61.406 225.135,64.000 224.601 C 64.770 224.442,71.700 222.633,79.400 220.579 C 87.100 218.526,94.117 216.718,94.993 216.561 C 98.457 215.941,99.548 213.375,98.033 209.408 C 97.141 207.071,95.052 199.421,94.224 195.453 C 93.333 191.185,91.357 189.723,88.157 190.965 C 87.300 191.298,83.810 192.309,80.400 193.212 C 65.693 197.107,63.581 197.678,59.506 198.857 C 53.252 200.668,53.866 201.354,50.412 188.687 C 47.948 179.647,47.893 179.773,55.053 177.955 C 57.664 177.292,62.320 176.064,65.400 175.225 C 68.480 174.387,73.520 173.037,76.600 172.225 C 84.845 170.052,85.254 169.901,86.146 168.696 C 86.863 167.726,86.907 167.408,86.503 166.096 C 86.250 165.273,85.416 162.412,84.651 159.737 C 83.885 157.063,82.976 154.327,82.630 153.657 C 81.554 151.577,82.101 149.227,84.529 145.488 C 85.275 144.340,88.145 139.440,90.905 134.600 C 98.235 121.749,97.253 122.608,107.644 119.968 C 117.441 117.479,117.446 117.473,115.111 109.600 C 114.557 107.730,113.698 104.670,113.203 102.800 C 112.708 100.930,111.985 98.230,111.597 96.800 C 111.209 95.370,110.485 92.670,109.988 90.800 C 109.491 88.930,108.661 86.075,108.142 84.454 C 106.253 78.550,106.532 78.186,114.510 76.135 C 117.419 75.388,120.790 74.442,122.000 74.033 C 126.173 72.625,127.897 73.727,128.816 78.390 C 129.056 79.605,130.770 86.304,132.626 93.276 C 134.482 100.248,136.001 106.278,136.002 106.676 C 136.018 111.900,137.238 112.060,150.325 108.557 C 162.502 105.298,163.364 104.683,161.636 100.495 C 161.207 99.453,159.404 93.110,157.632 86.400 C 155.859 79.690,154.046 73.253,153.604 72.096 C 151.626 66.920,152.866 65.524,161.142 63.607 C 163.201 63.130,165.969 62.393,167.294 61.970 C 172.064 60.446,173.526 61.176,174.423 65.524 C 174.681 66.776,175.567 70.320,176.392 73.400 C 177.658 78.124,181.068 91.130,182.457 96.530 C 183.002 98.650,184.525 99.294,187.361 98.603 C 194.036 96.976,206.335 93.467,207.094 92.972 C 208.390 92.127,208.651 90.543,207.844 88.412 C 207.467 87.416,205.654 81.020,203.817 74.200 C 201.980 67.380,200.099 60.681,199.638 59.313 C 197.892 54.130,198.423 53.524,206.546 51.447 C 209.817 50.610,213.147 49.685,213.946 49.391 C 216.263 48.539,217.887 48.655,218.586 49.723 M215.200 121.952 C 138.950 142.263,140.190 141.893,133.751 146.277 C 129.657 149.064,122.000 159.596,122.000 162.440 C 122.000 162.763,121.640 164.052,121.200 165.304 C 119.952 168.854,120.044 178.195,121.372 182.817 C 121.906 184.678,122.818 188.000,123.398 190.200 C 124.622 194.844,125.556 198.351,128.196 208.200 C 128.491 209.300,131.447 220.370,134.767 232.800 C 140.705 255.041,141.606 257.815,144.182 261.798 C 144.894 262.899,145.867 264.456,146.345 265.257 C 146.822 266.059,147.802 267.164,148.523 267.714 C 149.244 268.264,150.484 269.364,151.277 270.157 C 152.071 270.951,152.977 271.600,153.290 271.600 C 153.604 271.600,154.283 272.050,154.800 272.600 C 155.317 273.150,155.951 273.600,156.210 273.600 C 156.468 273.600,157.472 274.137,158.440 274.793 C 159.408 275.449,160.740 275.989,161.400 275.994 C 162.060 275.999,163.141 276.333,163.801 276.736 C 165.064 277.506,171.490 278.197,176.129 278.062 C 178.806 277.984,253.386 258.218,256.903 256.655 C 272.656 249.651,281.272 231.892,276.628 216.000 C 275.610 212.517,275.040 210.415,272.235 199.800 C 271.712 197.820,268.296 185.040,264.644 171.400 C 260.991 157.760,257.790 145.790,257.529 144.800 C 256.543 141.056,252.602 134.264,249.800 131.479 C 246.728 128.426,245.391 127.282,244.199 126.684 C 243.539 126.353,242.656 125.703,242.237 125.241 C 241.818 124.778,241.089 124.400,240.616 124.400 C 240.143 124.400,239.145 123.950,238.400 123.400 C 237.555 122.776,236.509 122.399,235.622 122.399 C 234.840 122.398,233.611 122.038,232.890 121.599 C 230.700 120.263,220.797 120.461,215.200 121.952 M229.055 136.209 C 230.080 136.754,231.233 137.200,231.618 137.200 C 232.002 137.200,233.725 138.211,235.448 139.447 C 237.170 140.683,238.788 141.774,239.042 141.872 C 239.679 142.116,244.504 148.637,245.500 150.600 C 245.946 151.480,249.675 164.800,253.785 180.200 C 257.895 195.600,261.699 209.730,262.239 211.600 C 266.380 225.939,260.457 239.602,247.400 245.834 C 245.070 246.946,202.346 258.755,184.400 263.247 C 181.029 264.091,175.708 264.300,174.469 263.637 C 174.020 263.397,172.693 263.200,171.519 263.200 C 169.935 263.200,169.027 262.956,167.993 262.254 C 167.227 261.733,166.057 261.188,165.393 261.042 C 164.729 260.897,162.950 259.792,161.440 258.589 C 159.929 257.385,158.540 256.400,158.352 256.400 C 158.165 256.400,157.520 255.635,156.919 254.700 C 156.318 253.765,155.327 252.410,154.716 251.689 C 152.683 249.289,151.902 247.395,150.022 240.300 C 149.570 238.595,148.840 235.850,148.400 234.200 C 147.960 232.550,147.240 229.850,146.800 228.200 C 146.044 225.365,145.011 221.504,143.804 217.000 C 143.509 215.900,141.255 207.530,138.794 198.400 L 134.320 181.800 134.577 176.646 C 134.963 168.935,138.397 161.912,144.173 157.021 C 148.884 153.031,150.543 152.407,170.941 146.941 C 195.001 140.494,196.480 140.094,206.800 137.228 L 215.400 134.839 221.296 135.029 C 226.597 135.199,227.380 135.318,229.055 136.209 " stroke="none" fill="#64b4f4" fill-rule="evenodd"></path></g></svg>